<svg xmlns="http://www.w3.org/2000/svg" viewBox="0 0 64 64">
<rect width="64" height="64" rx="14" fill="#101a28"/>
<circle cx="32" cy="35" r="19" fill="#f6f3ee"/>
<path d="M17 34c2-13 9-20 15-20s13 7 15 20c-5-7-10-10-15-10s-10 3-15 10z" fill="#f9f7f4"/>
<path d="M20 29c-4 1-7 4-8 8 4-2 7-2 10-1" fill="#e9e4de"/>
<path d="M44 29c4 1 7 4 8 8-4-2-7-2-10-1" fill="#e9e4de"/>
<circle cx="25.5" cy="37" r="2.4" fill="#26354b"/>
<circle cx="38.5" cy="37" r="2.4" fill="#26354b"/>
<path d="M28 45c2.5 2 5.5 2 8 0" fill="none" stroke="#c98c8c" stroke-width="2" stroke-linecap="round"/>
<path d="M32 5l4 5 6-1-3 5 3 5-6-1-4 5-4-5-6 1 3-5-3-5 6 1z" fill="#f4c978" stroke="#fff3c6" stroke-width="1.5"/>
<path d="M11 26l6-3 2 6-6 3zM53 26l-6-3-2 6 6 3z" fill="#26354b"/>
<circle cx="32" cy="35" r="19" fill="none" stroke="#d7e4f1" stroke-width="1.5"/>
</svg>